<?xml version="1.0" encoding="utf-8" standalone="no"?>
<!DOCTYPE svg PUBLIC "-//W3C//DTD SVG 1.1//EN"
  "http://www.w3.org/Graphics/SVG/1.1/DTD/svg11.dtd">
<svg xmlns:xlink="http://www.w3.org/1999/xlink" width="453.6pt" height="338.4pt" viewBox="0 0 453.6 338.4" xmlns="http://www.w3.org/2000/svg" version="1.1">
 <metadata>
  <rdf:RDF xmlns:dc="http://purl.org/dc/elements/1.1/" xmlns:cc="http://creativecommons.org/ns#" xmlns:rdf="http://www.w3.org/1999/02/22-rdf-syntax-ns#">
   <cc:Work>
    <dc:type rdf:resource="http://purl.org/dc/dcmitype/StillImage"/>
    <dc:date>2025-02-24T15:33:59.152904</dc:date>
    <dc:format>image/svg+xml</dc:format>
    <dc:creator>
     <cc:Agent>
      <dc:title>Matplotlib v3.7.1, https://matplotlib.org/</dc:title>
     </cc:Agent>
    </dc:creator>
   </cc:Work>
  </rdf:RDF>
 </metadata>
 <defs>
  <style type="text/css">*{stroke-linejoin: round; stroke-linecap: butt}</style>
 </defs>
 <g id="figure_1">
  <g id="patch_1">
   <path d="M 0 338.4 
L 453.6 338.4 
L 453.6 0 
L 0 0 
z
" style="fill: #ffffff"/>
  </g>
  <g id="axes_1">
   <g id="patch_2">
    <path d="M 10.7 327.7 
L 446.4 327.7 
L 446.4 7.2 
L 10.7 7.2 
z
" style="fill: #ffffff"/>
   </g>
   <g id="matplotlib.axis_1">
    <g id="xtick_1">
     <g id="line2d_1">
      <defs>
       <path id="mda275bdd2c" d="M 0 0 
L 0 3.5 
" style="stroke: #000000; stroke-width: 0.8"/>
      </defs>
      <g>
       <use xlink:href="#mda275bdd2c" x="27.503857" y="327.7" style="stroke: #000000; stroke-width: 0.8"/>
      </g>
     </g>
    </g>
    <g id="xtick_2">
     <g id="line2d_2">
      <g>
       <use xlink:href="#mda275bdd2c" x="107.522222" y="327.7" style="stroke: #000000; stroke-width: 0.8"/>
      </g>
     </g>
    </g>
    <g id="xtick_3">
     <g id="line2d_3">
      <g>
       <use xlink:href="#mda275bdd2c" x="187.540588" y="327.7" style="stroke: #000000; stroke-width: 0.8"/>
      </g>
     </g>
    </g>
    <g id="xtick_4">
     <g id="line2d_4">
      <g>
       <use xlink:href="#mda275bdd2c" x="267.558953" y="327.7" style="stroke: #000000; stroke-width: 0.8"/>
      </g>
     </g>
    </g>
    <g id="xtick_5">
     <g id="line2d_5">
      <g>
       <use xlink:href="#mda275bdd2c" x="347.577319" y="327.7" style="stroke: #000000; stroke-width: 0.8"/>
      </g>
     </g>
    </g>
    <g id="xtick_6">
     <g id="line2d_6">
      <g>
       <use xlink:href="#mda275bdd2c" x="427.595684" y="327.7" style="stroke: #000000; stroke-width: 0.8"/>
      </g>
     </g>
    </g>
   </g>
   <g id="matplotlib.axis_2">
    <g id="ytick_1">
     <g id="line2d_7">
      <defs>
       <path id="m9331c376b4" d="M 0 0 
L -3.5 0 
" style="stroke: #000000; stroke-width: 0.8"/>
      </defs>
      <g>
       <use xlink:href="#m9331c376b4" x="10.7" y="283.173112" style="stroke: #000000; stroke-width: 0.8"/>
      </g>
     </g>
    </g>
    <g id="ytick_2">
     <g id="line2d_8">
      <g>
       <use xlink:href="#m9331c376b4" x="10.7" y="222.228328" style="stroke: #000000; stroke-width: 0.8"/>
      </g>
     </g>
    </g>
    <g id="ytick_3">
     <g id="line2d_9">
      <g>
       <use xlink:href="#m9331c376b4" x="10.7" y="161.283543" style="stroke: #000000; stroke-width: 0.8"/>
      </g>
     </g>
    </g>
    <g id="ytick_4">
     <g id="line2d_10">
      <g>
       <use xlink:href="#m9331c376b4" x="10.7" y="100.338758" style="stroke: #000000; stroke-width: 0.8"/>
      </g>
     </g>
    </g>
    <g id="ytick_5">
     <g id="line2d_11">
      <g>
       <use xlink:href="#m9331c376b4" x="10.7" y="39.393973" style="stroke: #000000; stroke-width: 0.8"/>
      </g>
     </g>
    </g>
   </g>
   <g id="line2d_12">
    <path d="M 30.504545 21.768182 
L 32.505005 180.456678 
L 34.505464 263.20194 
L 36.505923 303.420581 
L 38.506382 313.131818 
L 40.506841 300.795765 
L 42.5073 274.672753 
L 44.507759 242.984733 
L 46.508219 213.152364 
L 48.508678 190.882557 
L 50.509137 179.485768 
L 52.509596 179.6187 
L 54.510055 189.510463 
L 56.510514 205.61312 
L 58.510973 223.527901 
L 60.511433 239.007539 
L 62.511892 248.829897 
L 64.512351 251.376187 
L 66.51281 246.818377 
L 68.513269 236.907821 
L 72.514187 212.545146 
L 74.514646 203.94344 
L 76.515106 200.37658 
L 78.515565 202.28265 
L 80.516024 208.796758 
L 84.516942 227.650919 
L 86.517401 235.315141 
L 88.51786 239.349242 
L 90.51832 239.027267 
L 92.518779 234.695736 
L 94.519238 227.627449 
L 96.519697 219.668081 
L 98.520156 212.769059 
L 100.520615 208.521519 
L 102.521074 207.799929 
L 104.521534 210.592968 
L 106.521993 216.05179 
L 108.522452 222.733579 
L 110.522911 228.97366 
L 112.52337 233.292417 
L 114.523829 234.739332 
L 116.524288 233.09566 
L 118.524747 228.894012 
L 122.525666 217.608652 
L 124.526125 213.310132 
L 126.526584 211.346197 
L 128.527043 212.098698 
L 130.527502 215.279717 
L 132.527961 220.026688 
L 134.528421 225.131727 
L 136.52888 229.345292 
L 138.529339 231.678735 
L 140.529798 231.633259 
L 142.530257 229.302946 
L 144.530716 225.331486 
L 146.531175 220.738006 
L 148.531635 216.65825 
L 150.532094 214.066197 
L 152.532553 213.54375 
L 154.533012 215.152462 
L 156.533471 218.43499 
L 160.534389 226.449449 
L 162.534848 229.212873 
L 164.535308 230.193191 
L 166.535767 229.203242 
L 168.536226 226.540123 
L 172.537144 219.194891 
L 174.537603 216.331081 
L 176.538062 214.983243 
L 178.538522 215.439664 
L 180.538981 217.541761 
L 182.53944 220.734314 
L 184.539899 224.210747 
L 186.540358 227.115772 
L 188.540817 228.754763 
L 190.541276 228.758862 
L 192.541736 227.166804 
L 194.542195 224.405605 
L 196.542654 221.17725 
L 198.543113 218.281141 
L 200.543572 216.416996 
L 202.544031 216.016589 
L 204.54449 217.144599 
L 206.544949 219.49113 
L 210.545868 225.299986 
L 212.546327 227.331306 
L 214.546786 228.070363 
L 216.547245 227.363829 
L 218.547704 225.41485 
L 222.548623 219.970241 
L 224.549082 217.823255 
L 226.549541 216.798133 
L 228.55 217.123383 
L 230.550459 218.692735 
L 232.550918 221.097706 
L 234.551377 223.733344 
L 236.551837 225.949916 
L 238.552296 227.212616 
L 240.552755 227.230167 
L 242.553214 226.021481 
L 244.553673 223.905262 
L 246.554132 221.416517 
L 248.554591 219.171713 
L 250.555051 217.71647 
L 252.55551 217.393308 
L 254.555969 218.261436 
L 256.556428 220.087249 
L 260.557346 224.64256 
L 262.557805 226.248352 
L 264.558264 226.84098 
L 266.558724 226.292129 
L 268.559183 224.755357 
L 272.560101 220.429917 
L 274.56056 218.712788 
L 276.561019 217.885907 
L 278.561478 218.13789 
L 280.561938 219.389839 
L 282.562397 221.318906 
L 284.562856 223.441251 
L 286.563315 225.233144 
L 288.563774 226.259969 
L 290.564233 226.281406 
L 292.564692 225.307391 
L 294.565152 223.591909 
L 296.565611 221.567049 
L 298.56607 219.734398 
L 300.566529 218.540995 
L 302.566988 218.270491 
L 304.567447 218.975947 
L 306.567906 220.470152 
L 310.568825 224.216939 
L 312.569284 225.544577 
L 314.569743 226.039059 
L 316.570202 225.590497 
L 318.570661 224.322036 
L 322.571579 220.734096 
L 324.572039 219.303425 
L 326.572498 218.610607 
L 328.572957 218.816019 
L 330.573416 219.857324 
L 332.573875 221.467716 
L 334.574334 223.244108 
L 336.574793 224.747882 
L 338.575253 225.613048 
L 340.575712 225.635184 
L 342.576171 224.81957 
L 344.57663 223.377225 
L 346.577089 221.670489 
L 348.577548 220.122124 
L 350.578007 219.110726 
L 352.578466 218.878268 
L 354.578926 219.47235 
L 356.579385 220.736877 
L 360.580303 223.918897 
L 362.580762 225.050506 
L 364.581221 225.474674 
L 366.58168 225.095472 
L 368.58214 224.01557 
L 372.583058 220.950264 
L 374.583517 219.724146 
L 376.583976 219.128014 
L 378.584435 219.301277 
L 380.584894 220.192599 
L 382.585354 221.574674 
L 384.585813 223.10209 
L 386.586272 224.397562 
L 388.586731 225.145031 
L 390.58719 225.166693 
L 392.587649 224.465181 
L 394.588108 223.220946 
L 398.589027 220.405513 
L 400.589486 219.52796 
L 402.589945 219.32423 
L 404.590404 219.837288 
L 406.590863 220.933335 
L 410.591781 223.698549 
L 412.592241 224.684564 
L 414.5927 225.055899 
L 416.593159 224.727509 
L 418.593618 223.787366 
L 422.594536 221.111792 
L 424.594995 220.039054 
L 426.595455 219.51594 
L 426.595455 219.51594 
" clip-path="url(#pf6fe0abffa)" style="fill: none; stroke: #1f77b4; stroke-width: 1.5; stroke-linecap: square"/>
   </g>
   <g id="line2d_13">
    <path d="M 30.504545 261.706949 
L 32.505005 226.940004 
L 34.505464 218.561967 
L 36.505923 216.745812 
L 38.506382 217.251235 
L 40.506841 218.612336 
L 42.5073 220.154175 
L 44.507759 221.522071 
L 46.508219 222.537152 
L 48.508678 223.13853 
L 50.509137 223.349518 
L 52.509596 223.249782 
L 56.510514 222.563456 
L 60.511433 221.916772 
L 62.511892 221.768878 
L 66.51281 221.852446 
L 74.514646 222.46404 
L 78.515565 222.461925 
L 90.51832 222.068782 
L 104.521534 222.318217 
L 116.524288 222.155533 
L 130.527502 222.268224 
L 142.530257 222.191827 
L 156.533471 222.245531 
L 168.536226 222.210322 
L 182.53944 222.233776 
L 196.542654 222.232345 
L 212.546327 222.211654 
L 296.565611 222.229915 
L 352.578466 222.234505 
L 426.595455 222.232415 
L 426.595455 222.232415 
" clip-path="url(#pf6fe0abffa)" style="fill: none; stroke: #ff7f0e; stroke-width: 1.5; stroke-linecap: square"/>
   </g>
   <g id="line2d_14">
    <path d="M 30.504545 214.405994 
L 32.505005 221.684481 
L 34.505464 222.550459 
L 36.505923 222.596577 
L 46.508219 222.218156 
L 58.510973 222.229078 
L 100.520615 222.227394 
L 426.595455 222.228322 
L 426.595455 222.228322 
" clip-path="url(#pf6fe0abffa)" style="fill: none; stroke: #2ca02c; stroke-width: 1.5; stroke-linecap: square"/>
   </g>
   <g id="patch_3">
    <path d="M 10.7 327.7 
L 10.7 7.2 
" style="fill: none; stroke: #000000; stroke-width: 0.8; stroke-linejoin: miter; stroke-linecap: square"/>
   </g>
   <g id="patch_4">
    <path d="M 446.4 327.7 
L 446.4 7.2 
" style="fill: none; stroke: #000000; stroke-width: 0.8; stroke-linejoin: miter; stroke-linecap: square"/>
   </g>
   <g id="patch_5">
    <path d="M 10.7 327.7 
L 446.4 327.7 
" style="fill: none; stroke: #000000; stroke-width: 0.8; stroke-linejoin: miter; stroke-linecap: square"/>
   </g>
   <g id="patch_6">
    <path d="M 10.7 7.2 
L 446.4 7.2 
" style="fill: none; stroke: #000000; stroke-width: 0.8; stroke-linejoin: miter; stroke-linecap: square"/>
   </g>
  </g>
 </g>
 <defs>
  <clipPath id="pf6fe0abffa">
   <rect x="10.7" y="7.2" width="435.7" height="320.5"/>
  </clipPath>
 </defs>
</svg>
