<?xml version="1.0" encoding="utf-8" standalone="no"?>
<!DOCTYPE svg PUBLIC "-//W3C//DTD SVG 1.1//EN"
  "http://www.w3.org/Graphics/SVG/1.1/DTD/svg11.dtd">
<svg xmlns:xlink="http://www.w3.org/1999/xlink" width="453.6pt" height="338.4pt" viewBox="0 0 453.6 338.4" xmlns="http://www.w3.org/2000/svg" version="1.1">
 <metadata>
  <rdf:RDF xmlns:dc="http://purl.org/dc/elements/1.1/" xmlns:cc="http://creativecommons.org/ns#" xmlns:rdf="http://www.w3.org/1999/02/22-rdf-syntax-ns#">
   <cc:Work>
    <dc:type rdf:resource="http://purl.org/dc/dcmitype/StillImage"/>
    <dc:date>2025-02-24T15:33:59.111435</dc:date>
    <dc:format>image/svg+xml</dc:format>
    <dc:creator>
     <cc:Agent>
      <dc:title>Matplotlib v3.7.1, https://matplotlib.org/</dc:title>
     </cc:Agent>
    </dc:creator>
   </cc:Work>
  </rdf:RDF>
 </metadata>
 <defs>
  <style type="text/css">*{stroke-linejoin: round; stroke-linecap: butt}</style>
 </defs>
 <g id="figure_1">
  <g id="patch_1">
   <path d="M 0 338.4 
L 453.6 338.4 
L 453.6 0 
L 0 0 
z
" style="fill: #ffffff"/>
  </g>
  <g id="axes_1">
   <g id="patch_2">
    <path d="M 10.7 327.7 
L 446.4 327.7 
L 446.4 7.2 
L 10.7 7.2 
z
" style="fill: #ffffff"/>
   </g>
   <g id="matplotlib.axis_1">
    <g id="xtick_1">
     <g id="line2d_1">
      <defs>
       <path id="m3ebc923c6c" d="M 0 0 
L 0 3.5 
" style="stroke: #000000; stroke-width: 0.8"/>
      </defs>
      <g>
       <use xlink:href="#m3ebc923c6c" x="27.503857" y="327.7" style="stroke: #000000; stroke-width: 0.8"/>
      </g>
     </g>
    </g>
    <g id="xtick_2">
     <g id="line2d_2">
      <g>
       <use xlink:href="#m3ebc923c6c" x="107.522222" y="327.7" style="stroke: #000000; stroke-width: 0.8"/>
      </g>
     </g>
    </g>
    <g id="xtick_3">
     <g id="line2d_3">
      <g>
       <use xlink:href="#m3ebc923c6c" x="187.540588" y="327.7" style="stroke: #000000; stroke-width: 0.8"/>
      </g>
     </g>
    </g>
    <g id="xtick_4">
     <g id="line2d_4">
      <g>
       <use xlink:href="#m3ebc923c6c" x="267.558953" y="327.7" style="stroke: #000000; stroke-width: 0.8"/>
      </g>
     </g>
    </g>
    <g id="xtick_5">
     <g id="line2d_5">
      <g>
       <use xlink:href="#m3ebc923c6c" x="347.577319" y="327.7" style="stroke: #000000; stroke-width: 0.8"/>
      </g>
     </g>
    </g>
    <g id="xtick_6">
     <g id="line2d_6">
      <g>
       <use xlink:href="#m3ebc923c6c" x="427.595684" y="327.7" style="stroke: #000000; stroke-width: 0.8"/>
      </g>
     </g>
    </g>
   </g>
   <g id="matplotlib.axis_2">
    <g id="ytick_1">
     <g id="line2d_7">
      <defs>
       <path id="maaee9fd85d" d="M 0 0 
L -3.5 0 
" style="stroke: #000000; stroke-width: 0.8"/>
      </defs>
      <g>
       <use xlink:href="#maaee9fd85d" x="10.7" y="313.454593" style="stroke: #000000; stroke-width: 0.8"/>
      </g>
     </g>
    </g>
    <g id="ytick_2">
     <g id="line2d_8">
      <g>
       <use xlink:href="#maaee9fd85d" x="10.7" y="264.74799" style="stroke: #000000; stroke-width: 0.8"/>
      </g>
     </g>
    </g>
    <g id="ytick_3">
     <g id="line2d_9">
      <g>
       <use xlink:href="#maaee9fd85d" x="10.7" y="216.041387" style="stroke: #000000; stroke-width: 0.8"/>
      </g>
     </g>
    </g>
    <g id="ytick_4">
     <g id="line2d_10">
      <g>
       <use xlink:href="#maaee9fd85d" x="10.7" y="167.334784" style="stroke: #000000; stroke-width: 0.8"/>
      </g>
     </g>
    </g>
    <g id="ytick_5">
     <g id="line2d_11">
      <g>
       <use xlink:href="#maaee9fd85d" x="10.7" y="118.628181" style="stroke: #000000; stroke-width: 0.8"/>
      </g>
     </g>
    </g>
    <g id="ytick_6">
     <g id="line2d_12">
      <g>
       <use xlink:href="#maaee9fd85d" x="10.7" y="69.921579" style="stroke: #000000; stroke-width: 0.8"/>
      </g>
     </g>
    </g>
    <g id="ytick_7">
     <g id="line2d_13">
      <g>
       <use xlink:href="#maaee9fd85d" x="10.7" y="21.214976" style="stroke: #000000; stroke-width: 0.8"/>
      </g>
     </g>
    </g>
   </g>
   <g id="line2d_14">
    <path d="M 30.504545 68.749143 
L 32.505005 132.810833 
L 34.505464 205.413288 
L 36.505923 268.595629 
L 38.506382 306.72739 
L 40.506841 310.375283 
L 42.5073 278.636867 
L 44.507759 219.363803 
L 46.508219 147.219455 
L 48.508678 80.051371 
L 50.509137 34.476037 
L 52.509596 21.768182 
L 54.510055 45.07156 
L 56.510514 98.621226 
L 60.511433 239.264255 
L 62.511892 291.564412 
L 64.512351 313.131818 
L 66.51281 298.630986 
L 68.513269 251.649228 
L 70.513728 183.809203 
L 72.514187 111.893627 
L 74.514646 53.693452 
L 76.515106 23.606625 
L 78.515565 29.076224 
L 80.516024 68.749143 
L 82.516483 132.810833 
L 84.516942 205.413288 
L 86.517401 268.595629 
L 88.51786 306.72739 
L 90.51832 310.375283 
L 92.518779 278.636867 
L 94.519238 219.363803 
L 96.519697 147.219455 
L 98.520156 80.051371 
L 100.520615 34.476037 
L 102.521074 21.768182 
L 104.521534 45.07156 
L 106.521993 98.621226 
L 110.522911 239.264255 
L 112.52337 291.564412 
L 114.523829 313.131818 
L 116.524288 298.630986 
L 118.524747 251.649228 
L 120.525207 183.809203 
L 122.525666 111.893627 
L 124.526125 53.693452 
L 126.526584 23.606625 
L 128.527043 29.076224 
L 130.527502 68.749143 
L 132.527961 132.810833 
L 134.528421 205.413288 
L 136.52888 268.595629 
L 138.529339 306.72739 
L 140.529798 310.375283 
L 142.530257 278.636867 
L 144.530716 219.363803 
L 146.531175 147.219455 
L 148.531635 80.051371 
L 150.532094 34.476037 
L 152.532553 21.768182 
L 154.533012 45.07156 
L 156.533471 98.621226 
L 160.534389 239.264255 
L 162.534848 291.564412 
L 164.535308 313.131818 
L 166.535767 298.630986 
L 168.536226 251.649228 
L 170.536685 183.809203 
L 172.537144 111.893627 
L 174.537603 53.693452 
L 176.538062 23.606625 
L 178.538522 29.076224 
L 180.538981 68.749143 
L 182.53944 132.810833 
L 184.539899 205.413288 
L 186.540358 268.595629 
L 188.540817 306.72739 
L 190.541276 310.375283 
L 192.541736 278.636867 
L 194.542195 219.363803 
L 196.542654 147.219455 
L 198.543113 80.051371 
L 200.543572 34.476037 
L 202.544031 21.768182 
L 204.54449 45.07156 
L 206.544949 98.621226 
L 210.545868 239.264255 
L 212.546327 291.564412 
L 214.546786 313.131818 
L 216.547245 298.630986 
L 218.547704 251.649228 
L 220.548163 183.809203 
L 222.548623 111.893627 
L 224.549082 53.693452 
L 226.549541 23.606625 
L 228.55 29.076224 
L 230.550459 68.749143 
L 232.550918 132.810833 
L 234.551377 205.413288 
L 236.551837 268.595629 
L 238.552296 306.72739 
L 240.552755 310.375283 
L 242.553214 278.636867 
L 244.553673 219.363803 
L 246.554132 147.219455 
L 248.554591 80.051371 
L 250.555051 34.476037 
L 252.55551 21.768182 
L 254.555969 45.07156 
L 256.556428 98.621226 
L 260.557346 239.264255 
L 262.557805 291.564412 
L 264.558264 313.131818 
L 266.558724 298.630986 
L 268.559183 251.649228 
L 270.559642 183.809203 
L 272.560101 111.893627 
L 274.56056 53.693452 
L 276.561019 23.606625 
L 278.561478 29.076224 
L 280.561938 68.749143 
L 282.562397 132.810833 
L 284.562856 205.413288 
L 286.563315 268.595629 
L 288.563774 306.72739 
L 290.564233 310.375283 
L 292.564692 278.636867 
L 294.565152 219.363803 
L 296.565611 147.219455 
L 298.56607 80.051371 
L 300.566529 34.476037 
L 302.566988 21.768182 
L 304.567447 45.07156 
L 306.567906 98.621226 
L 310.568825 239.264255 
L 312.569284 291.564412 
L 314.569743 313.131818 
L 316.570202 298.630986 
L 318.570661 251.649228 
L 320.57112 183.809203 
L 322.571579 111.893627 
L 324.572039 53.693452 
L 326.572498 23.606625 
L 328.572957 29.076224 
L 330.573416 68.749143 
L 332.573875 132.810833 
L 334.574334 205.413288 
L 336.574793 268.595629 
L 338.575253 306.72739 
L 340.575712 310.375283 
L 342.576171 278.636867 
L 344.57663 219.363803 
L 346.577089 147.219455 
L 348.577548 80.051371 
L 350.578007 34.476037 
L 352.578466 21.768182 
L 354.578926 45.07156 
L 356.579385 98.621226 
L 360.580303 239.264255 
L 362.580762 291.564412 
L 364.581221 313.131818 
L 366.58168 298.630986 
L 368.58214 251.649228 
L 370.582599 183.809203 
L 372.583058 111.893627 
L 374.583517 53.693452 
L 376.583976 23.606625 
L 378.584435 29.076224 
L 380.584894 68.749143 
L 382.585354 132.810833 
L 384.585813 205.413288 
L 386.586272 268.595629 
L 388.586731 306.72739 
L 390.58719 310.375283 
L 392.587649 278.636867 
L 394.588108 219.363803 
L 396.588567 147.219455 
L 398.589027 80.051371 
L 400.589486 34.476037 
L 402.589945 21.768182 
L 404.590404 45.07156 
L 406.590863 98.621226 
L 410.591781 239.264255 
L 412.592241 291.564412 
L 414.5927 313.131818 
L 416.593159 298.630986 
L 418.593618 251.649228 
L 420.594077 183.809203 
L 422.594536 111.893627 
L 424.594995 53.693452 
L 426.595455 23.606625 
L 426.595455 23.606625 
" clip-path="url(#p08648180a6)" style="fill: none; stroke: #1f77b4; stroke-width: 1.5; stroke-linecap: square"/>
   </g>
   <g id="line2d_15">
    <path d="M 30.504545 87.924865 
L 32.505005 136.525745 
L 34.505464 201.845695 
L 36.505923 261.668648 
L 38.506382 299.064687 
L 40.506841 303.807246 
L 42.5073 274.279784 
L 44.507759 217.648524 
L 46.508219 147.96948 
L 48.508678 82.629243 
L 50.509137 37.981594 
L 52.509596 25.255144 
L 54.510055 47.743953 
L 56.510514 99.975883 
L 60.511433 237.898374 
L 62.511892 289.401716 
L 64.512351 310.764552 
L 66.51281 296.635729 
L 68.513269 250.459208 
L 70.513728 183.630216 
L 72.514187 112.678115 
L 74.514646 55.173604 
L 76.515106 25.374428 
L 78.515565 30.688936 
L 80.516024 69.834562 
L 82.516483 133.148553 
L 84.516942 204.975162 
L 86.517401 267.538971 
L 88.51786 305.345591 
L 90.51832 309.019974 
L 92.518779 277.631386 
L 94.519238 218.928583 
L 96.519697 147.425984 
L 98.520156 80.81384 
L 100.520615 35.580527 
L 102.521074 22.930503 
L 104.521534 46.008632 
L 106.521993 99.118505 
L 110.522911 238.721194 
L 112.52337 290.67389 
L 114.523829 312.12505 
L 116.524288 297.75666 
L 118.524747 251.113065 
L 120.525207 183.726446 
L 122.525666 112.265227 
L 124.526125 54.410639 
L 126.526584 24.481598 
L 128.527043 29.890564 
L 130.527502 69.30766 
L 132.527961 132.987734 
L 134.528421 205.179894 
L 136.52888 268.023676 
L 138.529339 305.968023 
L 140.529798 309.619668 
L 142.530257 278.068552 
L 144.530716 219.114575 
L 146.531175 147.339207 
L 148.531635 80.49877 
L 150.532094 35.131547 
L 152.532553 22.465574 
L 154.533012 45.639706 
L 156.533471 98.925761 
L 160.534389 238.925352 
L 162.534848 291.003713 
L 164.535308 312.492483 
L 166.535767 298.071166 
L 168.536226 251.303194 
L 170.536685 183.755382 
L 172.537144 112.137089 
L 174.537603 54.166698 
L 176.538062 24.187983 
L 178.538522 29.620915 
L 180.538981 69.125138 
L 182.53944 132.930669 
L 184.539899 205.254223 
L 186.540358 268.203536 
L 188.540817 306.203851 
L 190.541276 309.851451 
L 192.541736 278.240769 
L 194.542195 219.189194 
L 196.542654 147.303777 
L 198.543113 80.367952 
L 200.543572 34.942093 
L 202.544031 22.266319 
L 204.54449 45.479213 
L 206.544949 98.840695 
L 210.545868 239.017948 
L 212.546327 291.155253 
L 214.546786 312.663429 
L 216.547245 298.219267 
L 218.547704 251.393779 
L 220.548163 183.769325 
L 222.548623 112.074663 
L 224.549082 54.046585 
L 226.549541 24.041913 
L 228.55 29.485419 
L 230.550459 69.032528 
L 232.550918 132.901441 
L 234.551377 205.292644 
L 236.551837 268.297338 
L 238.552296 306.327913 
L 240.552755 309.974417 
L 242.553214 278.332885 
L 244.553673 219.229426 
L 246.554132 147.284526 
L 248.554591 80.296327 
L 250.555051 34.837596 
L 252.55551 22.155622 
L 254.555969 45.389421 
L 256.556428 98.792776 
L 260.557346 239.070804 
L 262.557805 291.242308 
L 264.558264 312.762245 
L 266.558724 298.3054 
L 268.559183 251.446777 
L 270.559642 183.777531 
L 272.560101 112.037717 
L 274.56056 53.975101 
L 276.561019 23.954506 
L 278.561478 29.403906 
L 280.561938 68.976523 
L 282.562397 132.883675 
L 284.562856 205.316116 
L 286.563315 268.354923 
L 288.563774 306.404441 
L 290.564233 310.050627 
L 292.564692 278.39024 
L 294.565152 219.254591 
L 296.565611 147.272431 
L 298.56607 80.251132 
L 300.566529 34.771377 
L 302.566988 22.085178 
L 304.567447 45.332046 
L 306.567906 98.762032 
L 310.568825 239.104982 
L 312.569284 291.298817 
L 314.569743 312.82663 
L 316.570202 298.36173 
L 318.570661 251.481562 
L 320.57112 183.782936 
L 322.571579 112.013295 
L 324.572039 53.927685 
L 326.572498 23.896332 
L 328.572957 29.349474 
L 330.573416 68.939002 
L 332.573875 132.871734 
L 334.574334 205.331942 
L 336.574793 268.393872 
L 338.575253 306.456362 
L 340.575712 310.102489 
L 342.576171 278.429387 
L 344.57663 219.271817 
L 346.577089 147.264127 
L 348.577548 80.220017 
L 350.578007 34.725658 
L 352.578466 22.03641 
L 354.578926 45.292216 
L 356.579385 98.740633 
L 360.580303 239.128897 
L 362.580762 291.338458 
L 364.581221 312.871911 
L 366.58168 298.401444 
L 368.58214 251.506147 
L 370.582599 183.786765 
L 372.583058 111.995952 
L 374.583517 53.893934 
L 376.583976 23.854826 
L 378.584435 29.310549 
L 380.584894 68.91211 
L 382.585354 132.863156 
L 384.585813 205.343335 
L 386.586272 268.421972 
L 388.586731 306.4939 
L 390.58719 310.140064 
L 392.587649 278.457809 
L 394.588108 219.284349 
L 396.588567 147.258074 
L 398.589027 80.197288 
L 400.589486 34.692197 
L 402.589945 22.000646 
L 404.590404 45.262951 
L 406.590863 98.72488 
L 410.591781 239.146568 
L 412.592241 291.367803 
L 414.5927 312.90549 
L 416.593159 298.430948 
L 418.593618 251.524444 
L 420.594077 183.78962 
L 422.594536 111.982999 
L 424.594995 53.868684 
L 426.595455 23.823723 
L 426.595455 23.823723 
" clip-path="url(#p08648180a6)" style="fill: none; stroke: #ff7f0e; stroke-width: 1.5; stroke-linecap: square"/>
   </g>
   <g id="line2d_16">
    <path d="M 30.504545 84.144609 
L 32.505005 136.105728 
L 34.505464 202.164453 
L 36.505923 262.136237 
L 38.506382 299.484196 
L 40.506841 304.109548 
L 42.5073 274.452134 
L 44.507759 217.706915 
L 46.508219 147.943986 
L 48.508678 82.554402 
L 50.509137 37.889644 
L 52.509596 25.171553 
L 54.510055 47.685073 
L 56.510514 99.948555 
L 60.511433 237.923731 
L 62.511892 289.439067 
L 64.512351 310.802957 
L 66.51281 296.666229 
L 68.513269 250.476298 
L 70.513728 183.632358 
L 72.514187 112.667356 
L 74.514646 55.154525 
L 76.515106 25.352737 
L 78.515565 30.670048 
L 80.516024 69.82245 
L 82.516483 133.145081 
L 84.516942 204.97997 
L 86.517401 267.549851 
L 88.51786 305.359233 
L 90.51832 309.032846 
L 92.518779 277.640565 
L 94.519238 218.932342 
L 96.519697 147.424051 
L 98.520156 80.807293 
L 100.520615 35.5714 
L 102.521074 22.921215 
L 104.521534 46.001393 
L 106.521993 99.114822 
L 110.522911 238.725202 
L 112.52337 290.680223 
L 114.523829 312.131996 
L 116.524288 297.762517 
L 118.524747 251.116535 
L 120.525207 183.726904 
L 122.525666 112.262813 
L 124.526125 54.40616 
L 126.526584 24.476284 
L 128.527043 29.885748 
L 130.527502 69.304453 
L 132.527961 132.986782 
L 134.528421 205.181258 
L 136.52888 268.026864 
L 138.529339 305.972143 
L 140.529798 309.623669 
L 142.530257 278.071484 
L 144.530716 219.115807 
L 146.531175 147.338557 
L 148.531635 80.496516 
L 150.532094 35.128332 
L 152.532553 22.462231 
L 154.533012 45.637045 
L 156.533471 98.92438 
L 160.534389 238.926913 
L 162.534848 291.006223 
L 164.535308 312.495285 
L 166.535767 298.073567 
L 168.536226 251.304639 
L 170.536685 183.755576 
L 172.537144 112.136053 
L 174.537603 54.164748 
L 176.538062 24.185637 
L 178.538522 29.61876 
L 180.538981 69.123685 
L 182.53944 132.930232 
L 184.539899 205.254857 
L 186.540358 268.205034 
L 188.540817 306.20581 
L 190.541276 309.853374 
L 192.541736 278.242193 
L 194.542195 219.189799 
L 196.542654 147.303455 
L 198.543113 80.366823 
L 200.543572 34.940468 
L 202.544031 22.264613 
L 204.54449 45.477843 
L 206.544949 98.839978 
L 210.545868 239.018773 
L 212.546327 291.15659 
L 214.546786 312.664932 
L 216.547245 298.220565 
L 218.547704 251.394566 
L 220.548163 183.769432 
L 222.548623 112.07409 
L 224.549082 54.045499 
L 226.549541 24.040598 
L 228.55 29.484203 
L 230.550459 69.031703 
L 232.550918 132.901191 
L 234.551377 205.293009 
L 236.551837 268.298205 
L 238.552296 306.329053 
L 240.552755 309.975543 
L 242.553214 278.333723 
L 244.553673 219.229785 
L 246.554132 147.284334 
L 248.554591 80.295651 
L 250.555051 34.836618 
L 252.55551 22.15459 
L 254.555969 45.388588 
L 256.556428 98.792338 
L 260.557346 239.071313 
L 262.557805 291.243136 
L 264.558264 312.763181 
L 266.558724 298.306213 
L 268.559183 251.447271 
L 270.559642 183.777598 
L 272.560101 112.037354 
L 274.56056 53.97441 
L 276.561019 23.953666 
L 278.561478 29.403127 
L 280.561938 68.975992 
L 282.562397 132.883513 
L 284.562856 205.316352 
L 286.563315 268.355488 
L 288.563774 306.405186 
L 290.564233 310.051365 
L 292.564692 278.390792 
L 294.565152 219.254827 
L 296.565611 147.272304 
L 298.56607 80.250683 
L 300.566529 34.770724 
L 302.566988 22.084488 
L 304.567447 45.331486 
L 306.567906 98.761737 
L 310.568825 239.105327 
L 312.569284 291.299381 
L 314.569743 312.827269 
L 316.570202 298.362286 
L 318.570661 251.481902 
L 320.57112 183.782982 
L 322.571579 112.013044 
L 324.572039 53.927207 
L 326.572498 23.895749 
L 328.572957 29.348932 
L 330.573416 68.938631 
L 332.573875 132.871621 
L 334.574334 205.332108 
L 336.574793 268.394269 
L 338.575253 306.456887 
L 340.575712 310.10301 
L 342.576171 278.429778 
L 344.57663 219.271985 
L 346.577089 147.264037 
L 348.577548 80.219696 
L 350.578007 34.725192 
L 352.578466 22.035915 
L 354.578926 45.291814 
L 356.579385 98.740421 
L 360.580303 239.129146 
L 362.580762 291.338866 
L 364.581221 312.872374 
L 366.58168 298.401847 
L 368.58214 251.506394 
L 370.582599 183.786798 
L 372.583058 111.995769 
L 374.583517 53.893584 
L 376.583976 23.854399 
L 378.584435 29.310151 
L 380.584894 68.911837 
L 382.585354 132.863073 
L 384.585813 205.343457 
L 386.586272 268.422266 
L 388.586731 306.49429 
L 390.58719 310.140451 
L 392.587649 278.4581 
L 394.588108 219.284474 
L 396.588567 147.258007 
L 398.589027 80.197048 
L 400.589486 34.691847 
L 402.589945 22.000274 
L 404.590404 45.262649 
L 406.590863 98.72472 
L 410.591781 239.146756 
L 412.592241 291.368112 
L 414.5927 312.905841 
L 416.593159 298.431254 
L 418.593618 251.524632 
L 420.594077 183.789645 
L 422.594536 111.982859 
L 424.594995 53.868417 
L 426.595455 23.823396 
L 426.595455 23.823396 
" clip-path="url(#p08648180a6)" style="fill: none; stroke: #2ca02c; stroke-width: 1.5; stroke-linecap: square"/>
   </g>
   <g id="line2d_17">
    <path d="M 30.504545 84.769764 
L 32.505005 136.149191 
L 34.505464 202.138708 
L 36.505923 262.106806 
L 38.506382 299.462453 
L 40.506841 304.096234 
L 42.5073 274.445549 
L 44.507759 217.704967 
L 46.508219 147.944799 
L 48.508678 82.556501 
L 50.509137 37.891989 
L 52.509596 25.17351 
L 54.510055 47.686346 
L 56.510514 99.9491 
L 60.511433 237.923273 
L 62.511892 289.438435 
L 64.512351 310.802344 
L 66.51281 296.665769 
L 68.513269 250.476055 
L 70.513728 183.632332 
L 72.514187 112.6675 
L 74.514646 55.154767 
L 76.515106 25.353 
L 78.515565 30.670267 
L 80.516024 69.822584 
L 82.516483 133.145118 
L 84.516942 204.979918 
L 86.517401 267.549741 
L 88.51786 305.3591 
L 90.51832 309.032724 
L 92.518779 277.640481 
L 94.519238 218.93231 
L 96.519697 147.424068 
L 98.520156 80.807348 
L 100.520615 35.571474 
L 102.521074 22.921288 
L 104.521534 46.001449 
L 106.521993 99.11485 
L 110.522911 238.725173 
L 112.52337 290.680178 
L 114.523829 312.131948 
L 116.524288 297.762478 
L 118.524747 251.116512 
L 120.525207 183.726901 
L 122.525666 112.262828 
L 124.526125 54.406188 
L 126.526584 24.476316 
L 128.527043 29.885776 
L 130.527502 69.304471 
L 132.527961 132.986787 
L 134.528421 205.18125 
L 136.52888 268.026847 
L 138.529339 305.972121 
L 140.529798 309.623648 
L 142.530257 278.071469 
L 144.530716 219.115801 
L 146.531175 147.338561 
L 148.531635 80.496527 
L 150.532094 35.128348 
L 152.532553 22.462247 
L 154.533012 45.637057 
L 156.533471 98.924386 
L 160.534389 238.926906 
L 162.534848 291.006212 
L 164.535308 312.495272 
L 166.535767 298.073557 
L 168.536226 251.304633 
L 170.536685 183.755575 
L 172.537144 112.136057 
L 174.537603 54.164756 
L 176.538062 24.185646 
L 178.538522 29.618769 
L 180.538981 69.12369 
L 182.53944 132.930234 
L 184.539899 205.254854 
L 186.540358 268.205028 
L 188.540817 306.205802 
L 190.541276 309.853367 
L 192.541736 278.242188 
L 194.542195 219.189797 
L 196.542654 147.303456 
L 198.543113 80.366827 
L 200.543572 34.940474 
L 202.544031 22.264619 
L 204.54449 45.477847 
L 206.544949 98.83998 
L 210.545868 239.01877 
L 212.546327 291.156585 
L 214.546786 312.664927 
L 216.547245 298.220561 
L 218.547704 251.394564 
L 220.548163 183.769431 
L 222.548623 112.074092 
L 224.549082 54.045502 
L 226.549541 24.040602 
L 228.55 29.484207 
L 230.550459 69.031705 
L 232.550918 132.901192 
L 234.551377 205.293008 
L 236.551837 268.298202 
L 238.552296 306.329049 
L 240.552755 309.975539 
L 242.553214 278.333721 
L 244.553673 219.229784 
L 246.554132 147.284334 
L 248.554591 80.295653 
L 250.555051 34.836621 
L 252.55551 22.154593 
L 254.555969 45.38859 
L 256.556428 98.792339 
L 260.557346 239.071311 
L 262.557805 291.243134 
L 264.558264 312.763179 
L 266.558724 298.306211 
L 268.559183 251.44727 
L 270.559642 183.777598 
L 272.560101 112.037355 
L 274.56056 53.974412 
L 276.561019 23.953668 
L 278.561478 29.403128 
L 280.561938 68.975993 
L 282.562397 132.883514 
L 284.562856 205.316352 
L 286.563315 268.355486 
L 288.563774 306.405184 
L 290.564233 310.051364 
L 292.564692 278.390791 
L 294.565152 219.254827 
L 296.565611 147.272304 
L 298.56607 80.250684 
L 300.566529 34.770725 
L 302.566988 22.084489 
L 304.567447 45.331487 
L 306.567906 98.761738 
L 310.568825 239.105327 
L 312.569284 291.299379 
L 314.569743 312.827267 
L 316.570202 298.362285 
L 318.570661 251.481901 
L 320.57112 183.782982 
L 322.571579 112.013045 
L 324.572039 53.927208 
L 326.572498 23.89575 
L 328.572957 29.348933 
L 330.573416 68.938632 
L 332.573875 132.871621 
L 334.574334 205.332107 
L 336.574793 268.394268 
L 338.575253 306.456886 
L 340.575712 310.103009 
L 342.576171 278.429777 
L 344.57663 219.271984 
L 346.577089 147.264037 
L 348.577548 80.219697 
L 350.578007 34.725193 
L 352.578466 22.035916 
L 354.578926 45.291815 
L 356.579385 98.740421 
L 360.580303 239.129146 
L 362.580762 291.338865 
L 364.581221 312.872373 
L 366.58168 298.401846 
L 368.58214 251.506393 
L 370.582599 183.786798 
L 372.583058 111.995769 
L 374.583517 53.893585 
L 376.583976 23.8544 
L 378.584435 29.310151 
L 380.584894 68.911837 
L 382.585354 132.863073 
L 384.585813 205.343457 
L 386.586272 268.422265 
L 388.586731 306.494289 
L 390.58719 310.140451 
L 392.587649 278.458099 
L 394.588108 219.284474 
L 396.588567 147.258007 
L 398.589027 80.197049 
L 400.589486 34.691848 
L 402.589945 22.000275 
L 404.590404 45.26265 
L 406.590863 98.72472 
L 410.591781 239.146756 
L 412.592241 291.368111 
L 414.5927 312.905841 
L 416.593159 298.431254 
L 418.593618 251.524631 
L 420.594077 183.789645 
L 422.594536 111.98286 
L 424.594995 53.868417 
L 426.595455 23.823397 
L 426.595455 23.823397 
" clip-path="url(#p08648180a6)" style="fill: none; stroke: #d62728; stroke-width: 1.5; stroke-linecap: square"/>
   </g>
   <g id="patch_3">
    <path d="M 10.7 327.7 
L 10.7 7.2 
" style="fill: none; stroke: #000000; stroke-width: 0.8; stroke-linejoin: miter; stroke-linecap: square"/>
   </g>
   <g id="patch_4">
    <path d="M 446.4 327.7 
L 446.4 7.2 
" style="fill: none; stroke: #000000; stroke-width: 0.8; stroke-linejoin: miter; stroke-linecap: square"/>
   </g>
   <g id="patch_5">
    <path d="M 10.7 327.7 
L 446.4 327.7 
" style="fill: none; stroke: #000000; stroke-width: 0.8; stroke-linejoin: miter; stroke-linecap: square"/>
   </g>
   <g id="patch_6">
    <path d="M 10.7 7.2 
L 446.4 7.2 
" style="fill: none; stroke: #000000; stroke-width: 0.8; stroke-linejoin: miter; stroke-linecap: square"/>
   </g>
  </g>
 </g>
 <defs>
  <clipPath id="p08648180a6">
   <rect x="10.7" y="7.2" width="435.7" height="320.5"/>
  </clipPath>
 </defs>
</svg>
