<?xml version="1.0" encoding="utf-8" standalone="no"?>
<!DOCTYPE svg PUBLIC "-//W3C//DTD SVG 1.1//EN"
  "http://www.w3.org/Graphics/SVG/1.1/DTD/svg11.dtd">
<svg xmlns:xlink="http://www.w3.org/1999/xlink" width="453.6pt" height="338.4pt" viewBox="0 0 453.6 338.4" xmlns="http://www.w3.org/2000/svg" version="1.1">
 <metadata>
  <rdf:RDF xmlns:dc="http://purl.org/dc/elements/1.1/" xmlns:cc="http://creativecommons.org/ns#" xmlns:rdf="http://www.w3.org/1999/02/22-rdf-syntax-ns#">
   <cc:Work>
    <dc:type rdf:resource="http://purl.org/dc/dcmitype/StillImage"/>
    <dc:date>2025-02-24T15:33:59.191217</dc:date>
    <dc:format>image/svg+xml</dc:format>
    <dc:creator>
     <cc:Agent>
      <dc:title>Matplotlib v3.7.1, https://matplotlib.org/</dc:title>
     </cc:Agent>
    </dc:creator>
   </cc:Work>
  </rdf:RDF>
 </metadata>
 <defs>
  <style type="text/css">*{stroke-linejoin: round; stroke-linecap: butt}</style>
 </defs>
 <g id="figure_1">
  <g id="patch_1">
   <path d="M 0 338.4 
L 453.6 338.4 
L 453.6 0 
L 0 0 
z
" style="fill: #ffffff"/>
  </g>
  <g id="axes_1">
   <g id="patch_2">
    <path d="M 10.7 327.7 
L 446.4 327.7 
L 446.4 7.2 
L 10.7 7.2 
z
" style="fill: #ffffff"/>
   </g>
   <g id="matplotlib.axis_1">
    <g id="xtick_1">
     <g id="line2d_1">
      <defs>
       <path id="ma8c3a8b711" d="M 0 0 
L 0 3.5 
" style="stroke: #000000; stroke-width: 0.8"/>
      </defs>
      <g>
       <use xlink:href="#ma8c3a8b711" x="27.503857" y="327.7" style="stroke: #000000; stroke-width: 0.8"/>
      </g>
     </g>
    </g>
    <g id="xtick_2">
     <g id="line2d_2">
      <g>
       <use xlink:href="#ma8c3a8b711" x="107.522222" y="327.7" style="stroke: #000000; stroke-width: 0.8"/>
      </g>
     </g>
    </g>
    <g id="xtick_3">
     <g id="line2d_3">
      <g>
       <use xlink:href="#ma8c3a8b711" x="187.540588" y="327.7" style="stroke: #000000; stroke-width: 0.8"/>
      </g>
     </g>
    </g>
    <g id="xtick_4">
     <g id="line2d_4">
      <g>
       <use xlink:href="#ma8c3a8b711" x="267.558953" y="327.7" style="stroke: #000000; stroke-width: 0.8"/>
      </g>
     </g>
    </g>
    <g id="xtick_5">
     <g id="line2d_5">
      <g>
       <use xlink:href="#ma8c3a8b711" x="347.577319" y="327.7" style="stroke: #000000; stroke-width: 0.8"/>
      </g>
     </g>
    </g>
    <g id="xtick_6">
     <g id="line2d_6">
      <g>
       <use xlink:href="#ma8c3a8b711" x="427.595684" y="327.7" style="stroke: #000000; stroke-width: 0.8"/>
      </g>
     </g>
    </g>
   </g>
   <g id="matplotlib.axis_2">
    <g id="ytick_1">
     <g id="line2d_7">
      <defs>
       <path id="m36406105b1" d="M 0 0 
L -3.5 0 
" style="stroke: #000000; stroke-width: 0.8"/>
      </defs>
      <g>
       <use xlink:href="#m36406105b1" x="10.7" y="313.454606" style="stroke: #000000; stroke-width: 0.8"/>
      </g>
     </g>
    </g>
    <g id="ytick_2">
     <g id="line2d_8">
      <g>
       <use xlink:href="#m36406105b1" x="10.7" y="264.748009" style="stroke: #000000; stroke-width: 0.8"/>
      </g>
     </g>
    </g>
    <g id="ytick_3">
     <g id="line2d_9">
      <g>
       <use xlink:href="#m36406105b1" x="10.7" y="216.041413" style="stroke: #000000; stroke-width: 0.8"/>
      </g>
     </g>
    </g>
    <g id="ytick_4">
     <g id="line2d_10">
      <g>
       <use xlink:href="#m36406105b1" x="10.7" y="167.334817" style="stroke: #000000; stroke-width: 0.8"/>
      </g>
     </g>
    </g>
    <g id="ytick_5">
     <g id="line2d_11">
      <g>
       <use xlink:href="#m36406105b1" x="10.7" y="118.62822" style="stroke: #000000; stroke-width: 0.8"/>
      </g>
     </g>
    </g>
    <g id="ytick_6">
     <g id="line2d_12">
      <g>
       <use xlink:href="#m36406105b1" x="10.7" y="69.921624" style="stroke: #000000; stroke-width: 0.8"/>
      </g>
     </g>
    </g>
    <g id="ytick_7">
     <g id="line2d_13">
      <g>
       <use xlink:href="#m36406105b1" x="10.7" y="21.215028" style="stroke: #000000; stroke-width: 0.8"/>
      </g>
     </g>
    </g>
   </g>
   <g id="line2d_14">
    <path d="M 30.504545 68.7488 
L 32.505005 132.810366 
L 34.505464 205.41282 
L 36.505923 268.595285 
L 38.506382 306.727263 
L 40.506841 310.375412 
L 42.5073 278.637228 
L 44.507759 219.364315 
L 46.508219 147.219999 
L 48.508678 80.051821 
L 50.509137 34.476289 
L 52.509596 21.768182 
L 54.510055 45.071315 
L 56.510514 98.620806 
L 60.511433 239.263835 
L 62.511892 291.564167 
L 64.512351 313.131818 
L 66.51281 298.631239 
L 68.513269 251.649678 
L 70.513728 183.809748 
L 72.514187 111.894139 
L 74.514646 53.693814 
L 76.515106 23.606754 
L 78.515565 29.076097 
L 80.516024 68.7488 
L 82.516483 132.810366 
L 84.516942 205.41282 
L 86.517401 268.595285 
L 88.51786 306.727263 
L 90.51832 310.375412 
L 92.518779 278.637228 
L 94.519238 219.364315 
L 96.519697 147.219999 
L 98.520156 80.051821 
L 100.520615 34.476289 
L 102.521074 21.768182 
L 104.521534 45.071315 
L 106.521993 98.620806 
L 110.522911 239.263835 
L 112.52337 291.564167 
L 114.523829 313.131818 
L 116.524288 298.631239 
L 118.524747 251.649678 
L 120.525207 183.809748 
L 122.525666 111.894139 
L 124.526125 53.693814 
L 126.526584 23.606754 
L 128.527043 29.076097 
L 130.527502 68.7488 
L 132.527961 132.810366 
L 134.528421 205.41282 
L 136.52888 268.595285 
L 138.529339 306.727263 
L 140.529798 310.375412 
L 142.530257 278.637228 
L 144.530716 219.364315 
L 146.531175 147.219999 
L 148.531635 80.051821 
L 150.532094 34.476289 
L 152.532553 21.768182 
L 154.533012 45.071315 
L 156.533471 98.620806 
L 160.534389 239.263835 
L 162.534848 291.564167 
L 164.535308 313.131818 
L 166.535767 298.631239 
L 168.536226 251.649678 
L 170.536685 183.809748 
L 172.537144 111.894139 
L 174.537603 53.693814 
L 176.538062 23.606754 
L 178.538522 29.076097 
L 180.538981 68.7488 
L 182.53944 132.810366 
L 184.539899 205.41282 
L 186.540358 268.595285 
L 188.540817 306.727263 
L 190.541276 310.375412 
L 192.541736 278.637228 
L 194.542195 219.364315 
L 196.542654 147.219999 
L 198.543113 80.051821 
L 200.543572 34.476289 
L 202.544031 21.768182 
L 204.54449 45.071315 
L 206.544949 98.620806 
L 210.545868 239.263835 
L 212.546327 291.564167 
L 214.546786 313.131818 
L 216.547245 298.631239 
L 218.547704 251.649678 
L 220.548163 183.809748 
L 222.548623 111.894139 
L 224.549082 53.693814 
L 226.549541 23.606754 
L 228.55 29.076097 
L 230.550459 68.7488 
L 232.550918 132.810366 
L 234.551377 205.41282 
L 236.551837 268.595285 
L 238.552296 306.727263 
L 240.552755 310.375412 
L 242.553214 278.637228 
L 244.553673 219.364315 
L 246.554132 147.219999 
L 248.554591 80.051821 
L 250.555051 34.476289 
L 252.55551 21.768182 
L 254.555969 45.071315 
L 256.556428 98.620806 
L 260.557346 239.263835 
L 262.557805 291.564167 
L 264.558264 313.131818 
L 266.558724 298.631239 
L 268.559183 251.649678 
L 270.559642 183.809748 
L 272.560101 111.894139 
L 274.56056 53.693814 
L 276.561019 23.606754 
L 278.561478 29.076097 
L 280.561938 68.7488 
L 282.562397 132.810366 
L 284.562856 205.41282 
L 286.563315 268.595285 
L 288.563774 306.727263 
L 290.564233 310.375412 
L 292.564692 278.637228 
L 294.565152 219.364315 
L 296.565611 147.219999 
L 298.56607 80.051821 
L 300.566529 34.476289 
L 302.566988 21.768182 
L 304.567447 45.071315 
L 306.567906 98.620806 
L 310.568825 239.263835 
L 312.569284 291.564167 
L 314.569743 313.131818 
L 316.570202 298.631239 
L 318.570661 251.649678 
L 320.57112 183.809748 
L 322.571579 111.894139 
L 324.572039 53.693814 
L 326.572498 23.606754 
L 328.572957 29.076097 
L 330.573416 68.7488 
L 332.573875 132.810366 
L 334.574334 205.41282 
L 336.574793 268.595285 
L 338.575253 306.727263 
L 340.575712 310.375412 
L 342.576171 278.637228 
L 344.57663 219.364315 
L 346.577089 147.219999 
L 348.577548 80.051821 
L 350.578007 34.476289 
L 352.578466 21.768182 
L 354.578926 45.071315 
L 356.579385 98.620806 
L 360.580303 239.263835 
L 362.580762 291.564167 
L 364.581221 313.131818 
L 366.58168 298.631239 
L 368.58214 251.649678 
L 370.582599 183.809748 
L 372.583058 111.894139 
L 374.583517 53.693814 
L 376.583976 23.606754 
L 378.584435 29.076097 
L 380.584894 68.7488 
L 382.585354 132.810366 
L 384.585813 205.41282 
L 386.586272 268.595285 
L 388.586731 306.727263 
L 390.58719 310.375412 
L 392.587649 278.637228 
L 394.588108 219.364315 
L 396.588567 147.219999 
L 398.589027 80.051821 
L 400.589486 34.476289 
L 402.589945 21.768182 
L 404.590404 45.071315 
L 406.590863 98.620806 
L 410.591781 239.263835 
L 412.592241 291.564167 
L 414.5927 313.131818 
L 416.593159 298.631239 
L 418.593618 251.649678 
L 420.594077 183.809748 
L 422.594536 111.894139 
L 424.594995 53.693814 
L 426.595455 23.606754 
L 426.595455 23.606754 
" clip-path="url(#p227baa3f73)" style="fill: none; stroke: #1f77b4; stroke-width: 1.5; stroke-linecap: square"/>
   </g>
   <g id="line2d_15">
    <path d="M 30.504545 87.924624 
L 32.505005 136.525358 
L 34.505464 201.845285 
L 36.505923 261.668337 
L 38.506382 299.064571 
L 40.506841 303.807369 
L 42.5073 274.280128 
L 44.507759 217.649013 
L 46.508219 147.970003 
L 48.508678 82.629677 
L 50.509137 37.981839 
L 52.509596 25.255146 
L 54.510055 47.743717 
L 56.510514 99.975476 
L 60.511433 237.897965 
L 62.511892 289.401478 
L 64.512351 310.764552 
L 66.51281 296.635976 
L 68.513269 250.459649 
L 70.513728 183.630751 
L 72.514187 112.678619 
L 74.514646 55.17396 
L 76.515106 25.374555 
L 78.515565 30.688812 
L 80.516024 69.834224 
L 82.516483 133.148093 
L 84.516942 204.974702 
L 86.517401 267.538632 
L 88.51786 305.345466 
L 90.51832 309.020101 
L 92.518779 277.631744 
L 94.519238 218.929089 
L 96.519697 147.426522 
L 98.520156 80.814285 
L 100.520615 35.580777 
L 102.521074 22.930503 
L 104.521534 46.008391 
L 106.521993 99.11809 
L 110.522911 238.720778 
L 112.52337 290.673648 
L 114.523829 312.12505 
L 116.524288 297.75691 
L 118.524747 251.113511 
L 120.525207 183.726986 
L 122.525666 112.265735 
L 124.526125 54.410998 
L 126.526584 24.481726 
L 128.527043 29.890438 
L 130.527502 69.307319 
L 132.527961 132.98727 
L 134.528421 205.17943 
L 136.52888 268.023335 
L 138.529339 305.967897 
L 140.529798 309.619796 
L 142.530257 278.068911 
L 144.530716 219.115083 
L 146.531175 147.339748 
L 148.531635 80.499217 
L 150.532094 35.131798 
L 152.532553 22.465575 
L 154.533012 45.639464 
L 156.533471 98.925344 
L 160.534389 238.924935 
L 162.534848 291.00347 
L 164.535308 312.492484 
L 166.535767 298.071417 
L 168.536226 251.303641 
L 170.536685 183.755924 
L 172.537144 112.137598 
L 174.537603 54.167058 
L 176.538062 24.188111 
L 178.538522 29.620788 
L 180.538981 69.124796 
L 182.53944 132.930205 
L 184.539899 205.253758 
L 186.540358 268.203194 
L 188.540817 306.203725 
L 190.541276 309.85158 
L 192.541736 278.241128 
L 194.542195 219.189704 
L 196.542654 147.304319 
L 198.543113 80.3684 
L 200.543572 34.942345 
L 202.544031 22.26632 
L 204.54449 45.47897 
L 206.544949 98.840278 
L 210.545868 239.017531 
L 212.546327 291.15501 
L 214.546786 312.663429 
L 216.547245 298.219518 
L 218.547704 251.394227 
L 220.548163 183.769868 
L 222.548623 112.075173 
L 224.549082 54.046945 
L 226.549541 24.042042 
L 228.55 29.485293 
L 230.550459 69.032186 
L 232.550918 132.900976 
L 234.551377 205.292179 
L 236.551837 268.296995 
L 238.552296 306.327786 
L 240.552755 309.974545 
L 242.553214 278.333245 
L 244.553673 219.229937 
L 246.554132 147.285068 
L 248.554591 80.296775 
L 250.555051 34.837848 
L 252.55551 22.155622 
L 254.555969 45.389178 
L 256.556428 98.792358 
L 260.557346 239.070386 
L 262.557805 291.242065 
L 264.558264 312.762245 
L 266.558724 298.305652 
L 268.559183 251.447225 
L 270.559642 183.778073 
L 272.560101 112.038227 
L 274.56056 53.975461 
L 276.561019 23.954635 
L 278.561478 29.40378 
L 280.561938 68.976181 
L 282.562397 132.883209 
L 284.562856 205.31565 
L 286.563315 268.35458 
L 288.563774 306.404314 
L 290.564233 310.050756 
L 292.564692 278.3906 
L 294.565152 219.255101 
L 296.565611 147.272974 
L 298.56607 80.251581 
L 300.566529 34.771628 
L 302.566988 22.085179 
L 304.567447 45.331802 
L 306.567906 98.761614 
L 310.568825 239.104564 
L 312.569284 291.298574 
L 314.569743 312.826631 
L 316.570202 298.361982 
L 318.570661 251.482011 
L 320.57112 183.783479 
L 322.571579 112.013806 
L 324.572039 53.928046 
L 326.572498 23.896461 
L 328.572957 29.349347 
L 330.573416 68.938659 
L 332.573875 132.871268 
L 334.574334 205.331476 
L 336.574793 268.393529 
L 338.575253 306.456235 
L 340.575712 310.102618 
L 342.576171 278.429747 
L 344.57663 219.272328 
L 346.577089 147.264671 
L 348.577548 80.220465 
L 350.578007 34.72591 
L 352.578466 22.03641 
L 354.578926 45.291972 
L 356.579385 98.740214 
L 360.580303 239.128479 
L 362.580762 291.338215 
L 364.581221 312.871911 
L 366.58168 298.401695 
L 368.58214 251.506596 
L 370.582599 183.787308 
L 372.583058 111.996463 
L 374.583517 53.894295 
L 376.583976 23.854955 
L 378.584435 29.310423 
L 380.584894 68.911767 
L 382.585354 132.86269 
L 384.585813 205.342869 
L 386.586272 268.421629 
L 388.586731 306.493774 
L 390.58719 310.140193 
L 392.587649 278.458169 
L 394.588108 219.28486 
L 396.588567 147.258618 
L 398.589027 80.197737 
L 400.589486 34.692449 
L 402.589945 22.000646 
L 404.590404 45.262708 
L 406.590863 98.724461 
L 410.591781 239.146149 
L 412.592241 291.367559 
L 414.5927 312.90549 
L 416.593159 298.431199 
L 418.593618 251.524893 
L 420.594077 183.790163 
L 422.594536 111.98351 
L 424.594995 53.869045 
L 426.595455 23.823852 
L 426.595455 23.823852 
" clip-path="url(#p227baa3f73)" style="fill: none; stroke: #ff7f0e; stroke-width: 1.5; stroke-linecap: square"/>
   </g>
   <g id="line2d_16">
    <path d="M 30.504545 84.144344 
L 32.505005 136.10533 
L 34.505464 202.164036 
L 36.505923 262.135923 
L 38.506382 299.484079 
L 40.506841 304.109671 
L 42.5073 274.452478 
L 44.507759 217.707405 
L 46.508219 147.94451 
L 48.508678 82.554837 
L 50.509137 37.889889 
L 52.509596 25.171554 
L 54.510055 47.684837 
L 56.510514 99.948147 
L 60.511433 237.923322 
L 62.511892 289.438829 
L 64.512351 310.802957 
L 66.51281 296.666476 
L 68.513269 250.47674 
L 70.513728 183.632893 
L 72.514187 112.667859 
L 74.514646 55.154881 
L 76.515106 25.352865 
L 78.515565 30.669924 
L 80.516024 69.822112 
L 82.516483 133.144621 
L 84.516942 204.979509 
L 86.517401 267.549512 
L 88.51786 305.359108 
L 90.51832 309.032973 
L 92.518779 277.640922 
L 94.519238 218.932849 
L 96.519697 147.424589 
L 98.520156 80.807738 
L 100.520615 35.571649 
L 102.521074 22.921215 
L 104.521534 46.001152 
L 106.521993 99.114407 
L 110.522911 238.724787 
L 112.52337 290.679981 
L 114.523829 312.131996 
L 116.524288 297.762767 
L 118.524747 251.116981 
L 120.525207 183.727444 
L 122.525666 112.263321 
L 124.526125 54.406519 
L 126.526584 24.476413 
L 128.527043 29.885622 
L 130.527502 69.304112 
L 132.527961 132.986318 
L 134.528421 205.180794 
L 136.52888 268.026523 
L 138.529339 305.972017 
L 140.529798 309.623797 
L 142.530257 278.071843 
L 144.530716 219.116316 
L 146.531175 147.339098 
L 148.531635 80.496963 
L 150.532094 35.128583 
L 152.532553 22.462231 
L 154.533012 45.636803 
L 156.533471 98.923963 
L 160.534389 238.926496 
L 162.534848 291.005981 
L 164.535308 312.495285 
L 166.535767 298.073818 
L 168.536226 251.305087 
L 170.536685 183.756117 
L 172.537144 112.136562 
L 174.537603 54.165107 
L 176.538062 24.185766 
L 178.538522 29.618634 
L 180.538981 69.123343 
L 182.53944 132.929767 
L 184.539899 205.254392 
L 186.540358 268.204692 
L 188.540817 306.205683 
L 190.541276 309.853503 
L 192.541736 278.242553 
L 194.542195 219.190309 
L 196.542654 147.303997 
L 198.543113 80.367271 
L 200.543572 34.940719 
L 202.544031 22.264614 
L 204.54449 45.4776 
L 206.544949 98.83956 
L 210.545868 239.018355 
L 212.546327 291.156347 
L 214.546786 312.664932 
L 216.547245 298.220816 
L 218.547704 251.395015 
L 220.548163 183.769974 
L 222.548623 112.0746 
L 224.549082 54.045859 
L 226.549541 24.040727 
L 228.55 29.484077 
L 230.550459 69.031361 
L 232.550918 132.900726 
L 234.551377 205.292543 
L 236.551837 268.297863 
L 238.552296 306.328926 
L 240.552755 309.975671 
L 242.553214 278.334083 
L 244.553673 219.230295 
L 246.554132 147.284876 
L 248.554591 80.2961 
L 250.555051 34.83687 
L 252.55551 22.15459 
L 254.555969 45.388345 
L 256.556428 98.79192 
L 260.557346 239.070894 
L 262.557805 291.242893 
L 264.558264 312.763181 
L 266.558724 298.306464 
L 268.559183 251.44772 
L 270.559642 183.77814 
L 272.560101 112.037864 
L 274.56056 53.97477 
L 276.561019 23.953795 
L 278.561478 29.403 
L 280.561938 68.975649 
L 282.562397 132.883048 
L 284.562856 205.315887 
L 286.563315 268.355145 
L 288.563774 306.405059 
L 290.564233 310.051494 
L 292.564692 278.391152 
L 294.565152 219.255338 
L 296.565611 147.272847 
L 298.56607 80.251131 
L 300.566529 34.770976 
L 302.566988 22.084488 
L 304.567447 45.331243 
L 306.567906 98.761319 
L 310.568825 239.104909 
L 312.569284 291.299137 
L 314.569743 312.827269 
L 316.570202 298.362537 
L 318.570661 251.48235 
L 320.57112 183.783525 
L 322.571579 112.013555 
L 324.572039 53.927568 
L 326.572498 23.895878 
L 328.572957 29.348805 
L 330.573416 68.938289 
L 332.573875 132.871155 
L 334.574334 205.331642 
L 336.574793 268.393926 
L 338.575253 306.45676 
L 340.575712 310.103139 
L 342.576171 278.430138 
L 344.57663 219.272495 
L 346.577089 147.26458 
L 348.577548 80.220145 
L 350.578007 34.725444 
L 352.578466 22.035915 
L 354.578926 45.291571 
L 356.579385 98.740002 
L 360.580303 239.128728 
L 362.580762 291.338623 
L 364.581221 312.872374 
L 366.58168 298.402099 
L 368.58214 251.506843 
L 370.582599 183.787342 
L 372.583058 111.99628 
L 374.583517 53.893945 
L 376.583976 23.854528 
L 378.584435 29.310024 
L 380.584894 68.911494 
L 382.585354 132.862607 
L 384.585813 205.342991 
L 386.586272 268.421923 
L 388.586731 306.494163 
L 390.58719 310.14058 
L 392.587649 278.45846 
L 394.588108 219.284985 
L 396.588567 147.25855 
L 398.589027 80.197497 
L 400.589486 34.692099 
L 402.589945 22.000275 
L 404.590404 45.262406 
L 406.590863 98.724301 
L 410.591781 239.146337 
L 412.592241 291.367868 
L 414.5927 312.905841 
L 416.593159 298.431506 
L 418.593618 251.525081 
L 420.594077 183.790188 
L 422.594536 111.983371 
L 424.594995 53.868778 
L 426.595455 23.823525 
L 426.595455 23.823525 
" clip-path="url(#p227baa3f73)" style="fill: none; stroke: #2ca02c; stroke-width: 1.5; stroke-linecap: square"/>
   </g>
   <g id="line2d_17">
    <path d="M 30.504545 84.769503 
L 32.505005 136.148795 
L 34.505464 202.138292 
L 36.505923 262.106493 
L 38.506382 299.462336 
L 40.506841 304.096356 
L 42.5073 274.445893 
L 44.507759 217.705458 
L 46.508219 147.945323 
L 48.508678 82.556935 
L 50.509137 37.892234 
L 52.509596 25.173512 
L 54.510055 47.68611 
L 56.510514 99.948693 
L 60.511433 237.922864 
L 62.511892 289.438196 
L 64.512351 310.802344 
L 66.51281 296.666016 
L 68.513269 250.476496 
L 70.513728 183.632867 
L 72.514187 112.668003 
L 74.514646 55.155122 
L 76.515106 25.353127 
L 78.515565 30.670143 
L 80.516024 69.822246 
L 82.516483 133.144657 
L 84.516942 204.979458 
L 86.517401 267.549402 
L 88.51786 305.358974 
L 90.51832 309.032852 
L 92.518779 277.640839 
L 94.519238 218.932816 
L 96.519697 147.424607 
L 98.520156 80.807793 
L 100.520615 35.571724 
L 102.521074 22.921289 
L 104.521534 46.001207 
L 106.521993 99.114435 
L 110.522911 238.724758 
L 112.52337 290.679936 
L 114.523829 312.131949 
L 116.524288 297.762728 
L 118.524747 251.116958 
L 120.525207 183.727441 
L 122.525666 112.263336 
L 124.526125 54.406546 
L 126.526584 24.476445 
L 128.527043 29.88565 
L 130.527502 69.30413 
L 132.527961 132.986323 
L 134.528421 205.180787 
L 136.52888 268.026505 
L 138.529339 305.971995 
L 140.529798 309.623776 
L 142.530257 278.071828 
L 144.530716 219.11631 
L 146.531175 147.339101 
L 148.531635 80.496974 
L 150.532094 35.128599 
L 152.532553 22.462247 
L 154.533012 45.636815 
L 156.533471 98.923969 
L 160.534389 238.926489 
L 162.534848 291.00597 
L 164.535308 312.495273 
L 166.535767 298.073807 
L 168.536226 251.30508 
L 170.536685 183.756117 
L 172.537144 112.136567 
L 174.537603 54.165115 
L 176.538062 24.185775 
L 178.538522 29.618642 
L 180.538981 69.123348 
L 182.53944 132.929769 
L 184.539899 205.254389 
L 186.540358 268.204686 
L 188.540817 306.205676 
L 190.541276 309.853496 
L 192.541736 278.242548 
L 194.542195 219.190307 
L 196.542654 147.303998 
L 198.543113 80.367275 
L 200.543572 34.940725 
L 202.544031 22.264619 
L 204.54449 45.477604 
L 206.544949 98.839563 
L 210.545868 239.018352 
L 212.546327 291.156342 
L 214.546786 312.664927 
L 216.547245 298.220812 
L 218.547704 251.395012 
L 220.548163 183.769974 
L 222.548623 112.074602 
L 224.549082 54.045862 
L 226.549541 24.040731 
L 228.55 29.484081 
L 230.550459 69.031363 
L 232.550918 132.900726 
L 234.551377 205.292542 
L 236.551837 268.29786 
L 238.552296 306.328923 
L 240.552755 309.975668 
L 242.553214 278.334081 
L 244.553673 219.230294 
L 246.554132 147.284877 
L 248.554591 80.296101 
L 250.555051 34.836872 
L 252.55551 22.154593 
L 254.555969 45.388347 
L 256.556428 98.791921 
L 260.557346 239.070893 
L 262.557805 291.242891 
L 264.558264 312.763179 
L 266.558724 298.306462 
L 268.559183 251.447719 
L 270.559642 183.77814 
L 272.560101 112.037865 
L 274.56056 53.974772 
L 276.561019 23.953797 
L 278.561478 29.403002 
L 280.561938 68.975651 
L 282.562397 132.883048 
L 284.562856 205.315886 
L 286.563315 268.355144 
L 288.563774 306.405058 
L 290.564233 310.051493 
L 292.564692 278.391151 
L 294.565152 219.255338 
L 296.565611 147.272847 
L 298.56607 80.251132 
L 300.566529 34.770977 
L 302.566988 22.084489 
L 304.567447 45.331244 
L 306.567906 98.761319 
L 310.568825 239.104908 
L 312.569284 291.299136 
L 314.569743 312.827268 
L 316.570202 298.362536 
L 318.570661 251.48235 
L 320.57112 183.783525 
L 322.571579 112.013556 
L 324.572039 53.927569 
L 326.572498 23.895879 
L 328.572957 29.348806 
L 330.573416 68.938289 
L 332.573875 132.871155 
L 334.574334 205.331641 
L 336.574793 268.393925 
L 338.575253 306.456759 
L 340.575712 310.103138 
L 342.576171 278.430137 
L 344.57663 219.272495 
L 346.577089 147.26458 
L 348.577548 80.220146 
L 350.578007 34.725445 
L 352.578466 22.035916 
L 354.578926 45.291572 
L 356.579385 98.740003 
L 360.580303 239.128727 
L 362.580762 291.338622 
L 364.581221 312.872373 
L 366.58168 298.402098 
L 368.58214 251.506842 
L 370.582599 183.787341 
L 372.583058 111.99628 
L 374.583517 53.893945 
L 376.583976 23.854528 
L 378.584435 29.310025 
L 380.584894 68.911494 
L 382.585354 132.862607 
L 384.585813 205.342991 
L 386.586272 268.421922 
L 388.586731 306.494162 
L 390.58719 310.14058 
L 392.587649 278.45846 
L 394.588108 219.284985 
L 396.588567 147.25855 
L 398.589027 80.197498 
L 400.589486 34.6921 
L 402.589945 22.000275 
L 404.590404 45.262406 
L 406.590863 98.724302 
L 410.591781 239.146337 
L 412.592241 291.367868 
L 414.5927 312.905841 
L 416.593159 298.431505 
L 418.593618 251.52508 
L 420.594077 183.790188 
L 422.594536 111.983371 
L 424.594995 53.868778 
L 426.595455 23.823526 
L 426.595455 23.823526 
" clip-path="url(#p227baa3f73)" style="fill: none; stroke: #d62728; stroke-width: 1.5; stroke-linecap: square"/>
   </g>
   <g id="patch_3">
    <path d="M 10.7 327.7 
L 10.7 7.2 
" style="fill: none; stroke: #000000; stroke-width: 0.8; stroke-linejoin: miter; stroke-linecap: square"/>
   </g>
   <g id="patch_4">
    <path d="M 446.4 327.7 
L 446.4 7.2 
" style="fill: none; stroke: #000000; stroke-width: 0.8; stroke-linejoin: miter; stroke-linecap: square"/>
   </g>
   <g id="patch_5">
    <path d="M 10.7 327.7 
L 446.4 327.7 
" style="fill: none; stroke: #000000; stroke-width: 0.8; stroke-linejoin: miter; stroke-linecap: square"/>
   </g>
   <g id="patch_6">
    <path d="M 10.7 7.2 
L 446.4 7.2 
" style="fill: none; stroke: #000000; stroke-width: 0.8; stroke-linejoin: miter; stroke-linecap: square"/>
   </g>
  </g>
 </g>
 <defs>
  <clipPath id="p227baa3f73">
   <rect x="10.7" y="7.2" width="435.7" height="320.5"/>
  </clipPath>
 </defs>
</svg>
