<?xml version="1.0" encoding="utf-8" standalone="no"?>
<!DOCTYPE svg PUBLIC "-//W3C//DTD SVG 1.1//EN"
  "http://www.w3.org/Graphics/SVG/1.1/DTD/svg11.dtd">
<svg xmlns:xlink="http://www.w3.org/1999/xlink" width="453.6pt" height="338.4pt" viewBox="0 0 453.6 338.4" xmlns="http://www.w3.org/2000/svg" version="1.1">
 <metadata>
  <rdf:RDF xmlns:dc="http://purl.org/dc/elements/1.1/" xmlns:cc="http://creativecommons.org/ns#" xmlns:rdf="http://www.w3.org/1999/02/22-rdf-syntax-ns#">
   <cc:Work>
    <dc:type rdf:resource="http://purl.org/dc/dcmitype/StillImage"/>
    <dc:date>2025-02-24T15:33:59.229091</dc:date>
    <dc:format>image/svg+xml</dc:format>
    <dc:creator>
     <cc:Agent>
      <dc:title>Matplotlib v3.7.1, https://matplotlib.org/</dc:title>
     </cc:Agent>
    </dc:creator>
   </cc:Work>
  </rdf:RDF>
 </metadata>
 <defs>
  <style type="text/css">*{stroke-linejoin: round; stroke-linecap: butt}</style>
 </defs>
 <g id="figure_1">
  <g id="patch_1">
   <path d="M 0 338.4 
L 453.6 338.4 
L 453.6 0 
L 0 0 
z
" style="fill: #ffffff"/>
  </g>
  <g id="axes_1">
   <g id="patch_2">
    <path d="M 10.7 327.7 
L 446.4 327.7 
L 446.4 7.2 
L 10.7 7.2 
z
" style="fill: #ffffff"/>
   </g>
   <g id="matplotlib.axis_1">
    <g id="xtick_1">
     <g id="line2d_1">
      <defs>
       <path id="mb42dfb24a7" d="M 0 0 
L 0 3.5 
" style="stroke: #000000; stroke-width: 0.8"/>
      </defs>
      <g>
       <use xlink:href="#mb42dfb24a7" x="27.503857" y="327.7" style="stroke: #000000; stroke-width: 0.8"/>
      </g>
     </g>
    </g>
    <g id="xtick_2">
     <g id="line2d_2">
      <g>
       <use xlink:href="#mb42dfb24a7" x="107.522222" y="327.7" style="stroke: #000000; stroke-width: 0.8"/>
      </g>
     </g>
    </g>
    <g id="xtick_3">
     <g id="line2d_3">
      <g>
       <use xlink:href="#mb42dfb24a7" x="187.540588" y="327.7" style="stroke: #000000; stroke-width: 0.8"/>
      </g>
     </g>
    </g>
    <g id="xtick_4">
     <g id="line2d_4">
      <g>
       <use xlink:href="#mb42dfb24a7" x="267.558953" y="327.7" style="stroke: #000000; stroke-width: 0.8"/>
      </g>
     </g>
    </g>
    <g id="xtick_5">
     <g id="line2d_5">
      <g>
       <use xlink:href="#mb42dfb24a7" x="347.577319" y="327.7" style="stroke: #000000; stroke-width: 0.8"/>
      </g>
     </g>
    </g>
    <g id="xtick_6">
     <g id="line2d_6">
      <g>
       <use xlink:href="#mb42dfb24a7" x="427.595684" y="327.7" style="stroke: #000000; stroke-width: 0.8"/>
      </g>
     </g>
    </g>
   </g>
   <g id="matplotlib.axis_2">
    <g id="ytick_1">
     <g id="line2d_7">
      <defs>
       <path id="me948cef796" d="M 0 0 
L -3.5 0 
" style="stroke: #000000; stroke-width: 0.8"/>
      </defs>
      <g>
       <use xlink:href="#me948cef796" x="10.7" y="283.173326" style="stroke: #000000; stroke-width: 0.8"/>
      </g>
     </g>
    </g>
    <g id="ytick_2">
     <g id="line2d_8">
      <g>
       <use xlink:href="#me948cef796" x="10.7" y="222.228741" style="stroke: #000000; stroke-width: 0.8"/>
      </g>
     </g>
    </g>
    <g id="ytick_3">
     <g id="line2d_9">
      <g>
       <use xlink:href="#me948cef796" x="10.7" y="161.284155" style="stroke: #000000; stroke-width: 0.8"/>
      </g>
     </g>
    </g>
    <g id="ytick_4">
     <g id="line2d_10">
      <g>
       <use xlink:href="#me948cef796" x="10.7" y="100.33957" style="stroke: #000000; stroke-width: 0.8"/>
      </g>
     </g>
    </g>
    <g id="ytick_5">
     <g id="line2d_11">
      <g>
       <use xlink:href="#me948cef796" x="10.7" y="39.394984" style="stroke: #000000; stroke-width: 0.8"/>
      </g>
     </g>
    </g>
   </g>
   <g id="line2d_12">
    <path d="M 30.504545 21.768182 
L 32.505005 180.456337 
L 34.505464 263.201576 
L 36.505923 303.420358 
L 38.506382 313.131818 
L 40.506841 300.79601 
L 42.5073 274.673217 
L 44.507759 242.985354 
L 46.508219 213.153065 
L 48.508678 190.883258 
L 50.509137 179.486403 
L 52.509596 179.61923 
L 54.510055 189.510875 
L 56.510514 205.613431 
L 58.510973 223.528146 
L 60.511433 239.007767 
L 62.511892 248.830152 
L 64.512351 251.376503 
L 66.51281 246.818771 
L 68.513269 236.908289 
L 72.514187 212.545693 
L 74.514646 203.943977 
L 76.515106 200.377078 
L 78.515565 202.283092 
L 80.516024 208.797141 
L 84.516942 227.651228 
L 86.517401 235.315451 
L 88.51786 239.349577 
L 90.51832 239.027644 
L 92.518779 234.696161 
L 94.519238 227.627916 
L 96.519697 219.668575 
L 98.520156 212.769559 
L 100.520615 208.522004 
L 102.521074 207.800381 
L 104.521534 210.59338 
L 106.521993 216.052165 
L 108.522452 222.733927 
L 110.522911 228.973998 
L 112.52337 233.292764 
L 114.523829 234.739703 
L 116.524288 233.096065 
L 118.524747 228.89445 
L 122.525666 217.60913 
L 124.526125 213.310606 
L 126.526584 211.346653 
L 128.527043 212.099126 
L 130.527502 215.280114 
L 132.527961 220.02706 
L 134.528421 225.132085 
L 136.52888 229.345649 
L 138.529339 231.679105 
L 140.529798 231.633652 
L 142.530257 229.303366 
L 144.530716 225.331931 
L 146.531175 220.738466 
L 148.531635 216.658714 
L 150.532094 214.066652 
L 152.532553 213.544186 
L 154.533012 215.152875 
L 156.533471 218.43538 
L 160.534389 226.449815 
L 162.534848 229.213245 
L 164.535308 230.193578 
L 166.535767 229.203649 
L 168.536226 226.540553 
L 172.537144 219.195346 
L 174.537603 216.331534 
L 176.538062 214.983684 
L 178.538522 215.440087 
L 180.538981 217.542164 
L 182.53944 220.734699 
L 184.539899 224.211122 
L 186.540358 227.116146 
L 188.540817 228.755146 
L 190.541276 228.759261 
L 192.541736 227.167221 
L 194.542195 224.40604 
L 196.542654 221.177697 
L 198.543113 218.281591 
L 200.543572 216.417439 
L 202.544031 216.017019 
L 204.54449 217.145012 
L 206.544949 219.491526 
L 210.545868 225.300365 
L 212.546327 227.331689 
L 214.546786 228.070756 
L 216.547245 227.364238 
L 218.547704 225.415275 
L 222.548623 219.970685 
L 224.549082 217.823698 
L 226.549541 216.798567 
L 228.55 217.123804 
L 230.550459 218.69314 
L 232.550918 221.098098 
L 234.551377 223.733729 
L 236.551837 225.9503 
L 238.552296 227.213006 
L 240.552755 227.230569 
L 242.553214 226.021898 
L 244.553673 223.905692 
L 246.554132 221.416955 
L 248.554591 219.172154 
L 250.555051 217.716906 
L 252.55551 217.393734 
L 254.555969 218.261849 
L 256.556428 220.087648 
L 260.557346 224.642947 
L 262.557805 226.248741 
L 264.558264 226.841377 
L 266.558724 226.292539 
L 268.559183 224.755779 
L 272.560101 220.430355 
L 274.56056 218.713225 
L 276.561019 217.886337 
L 278.561478 218.138309 
L 280.561938 219.390246 
L 282.562397 221.319302 
L 284.562856 223.44164 
L 286.563315 225.233533 
L 288.563774 226.260364 
L 290.564233 226.28181 
L 292.564692 225.307807 
L 294.565152 223.592336 
L 296.565611 221.567483 
L 298.56607 219.734834 
L 300.566529 218.541427 
L 302.566988 218.270915 
L 304.567447 218.97636 
L 306.567906 220.470554 
L 310.568825 224.21733 
L 312.569284 225.54497 
L 314.569743 226.039459 
L 316.570202 225.590907 
L 318.570661 224.322457 
L 322.571579 220.73453 
L 324.572039 219.303858 
L 326.572498 218.611034 
L 328.572957 218.816437 
L 330.573416 219.857732 
L 332.573875 221.468115 
L 334.574334 223.244501 
L 336.574793 224.748275 
L 338.575253 225.613446 
L 340.575712 225.63559 
L 342.576171 224.819985 
L 344.57663 223.377649 
L 346.577089 221.670919 
L 348.577548 220.122557 
L 350.578007 219.111155 
L 352.578466 218.87869 
L 354.578926 219.472763 
L 356.579385 220.737281 
L 360.580303 223.919291 
L 362.580762 225.050902 
L 364.581221 225.475076 
L 366.58168 225.095883 
L 368.58214 224.01599 
L 372.583058 220.950695 
L 374.583517 219.724576 
L 376.583976 219.128439 
L 378.584435 219.301694 
L 380.584894 220.193007 
L 382.585354 221.575075 
L 384.585813 223.102487 
L 386.586272 224.397958 
L 388.586731 225.145431 
L 390.58719 225.167099 
L 392.587649 224.465596 
L 394.588108 223.221369 
L 398.589027 220.405943 
L 400.589486 219.528387 
L 402.589945 219.324651 
L 404.590404 219.837701 
L 406.590863 220.93374 
L 410.591781 223.698945 
L 412.592241 224.684962 
L 414.5927 225.056302 
L 416.593159 224.72792 
L 418.593618 223.787785 
L 422.594536 221.112221 
L 424.594995 220.039481 
L 426.595455 219.516363 
L 426.595455 219.516363 
" clip-path="url(#p3fc26a62f6)" style="fill: none; stroke: #1f77b4; stroke-width: 1.5; stroke-linecap: square"/>
   </g>
   <g id="line2d_13">
    <path d="M 30.504545 261.707478 
L 32.505005 226.940523 
L 34.505464 218.562454 
L 36.505923 216.74627 
L 38.506382 217.251671 
L 40.506841 218.612756 
L 42.5073 220.154585 
L 44.507759 221.522475 
L 46.508219 222.537554 
L 48.508678 223.138934 
L 50.509137 223.349925 
L 52.509596 223.250192 
L 56.510514 222.563871 
L 60.511433 221.917189 
L 62.511892 221.769294 
L 66.51281 221.852859 
L 74.514646 222.464451 
L 78.515565 222.462338 
L 90.51832 222.069195 
L 104.521534 222.31863 
L 116.524288 222.155946 
L 130.527502 222.268637 
L 142.530257 222.19224 
L 156.533471 222.245944 
L 168.536226 222.210735 
L 182.53944 222.234189 
L 196.542654 222.232758 
L 212.546327 222.212067 
L 296.565611 222.230328 
L 352.578466 222.234918 
L 426.595455 222.232828 
L 426.595455 222.232828 
" clip-path="url(#p3fc26a62f6)" style="fill: none; stroke: #ff7f0e; stroke-width: 1.5; stroke-linecap: square"/>
   </g>
   <g id="line2d_14">
    <path d="M 30.504545 214.40638 
L 32.505005 221.68488 
L 34.505464 222.550865 
L 36.505923 222.596987 
L 46.508219 222.218569 
L 58.510973 222.22949 
L 100.520615 222.227807 
L 426.595455 222.228735 
L 426.595455 222.228735 
" clip-path="url(#p3fc26a62f6)" style="fill: none; stroke: #2ca02c; stroke-width: 1.5; stroke-linecap: square"/>
   </g>
   <g id="patch_3">
    <path d="M 10.7 327.7 
L 10.7 7.2 
" style="fill: none; stroke: #000000; stroke-width: 0.8; stroke-linejoin: miter; stroke-linecap: square"/>
   </g>
   <g id="patch_4">
    <path d="M 446.4 327.7 
L 446.4 7.2 
" style="fill: none; stroke: #000000; stroke-width: 0.8; stroke-linejoin: miter; stroke-linecap: square"/>
   </g>
   <g id="patch_5">
    <path d="M 10.7 327.7 
L 446.4 327.7 
" style="fill: none; stroke: #000000; stroke-width: 0.8; stroke-linejoin: miter; stroke-linecap: square"/>
   </g>
   <g id="patch_6">
    <path d="M 10.7 7.2 
L 446.4 7.2 
" style="fill: none; stroke: #000000; stroke-width: 0.8; stroke-linejoin: miter; stroke-linecap: square"/>
   </g>
  </g>
 </g>
 <defs>
  <clipPath id="p3fc26a62f6">
   <rect x="10.7" y="7.2" width="435.7" height="320.5"/>
  </clipPath>
 </defs>
</svg>
